{
  "accessors": [
    {
      "name": "SeaWeed Egg_GP_3_positions",
      "componentType": 5126,
      "count": 320,
      "min": [
        -1.223410964012146,
        -0.0036810000892728567,
        -0.45249900221824646
      ],
      "max": [
        0.9221389889717102,
        1.9230250120162964,
        0.45249900221824646
      ],
      "type": "VEC3",
      "bufferView": 0,
      "byteOffset": 0
    },
    {
      "name": "SeaWeed Egg_GP_3_normals",
      "componentType": 5126,
      "count": 320,
      "min": [
        -0.9996920228004456,
        -1,
        -1
      ],
      "max": [
        0.9996880292892456,
        1,
        1
      ],
      "type": "VEC3",
      "bufferView": 0,
      "byteOffset": 30240
    },
    {
      "name": "SeaWeed Egg_GP_3_texcoords",
      "componentType": 5126,
      "count": 320,
      "min": [
        0.125,
        0
      ],
      "max": [
        0.875,
        1
      ],
      "type": "VEC2",
      "bufferView": 1,
      "byteOffset": 0
    },
    {
      "name": "SeaWeed Egg_GP_3_0_indices",
      "componentType": 5123,
      "count": 480,
      "min": [
        0
      ],
      "max": [
        319
      ],
      "type": "SCALAR",
      "bufferView": 2,
      "byteOffset": 0
    },
    {
      "name": "Egg_GP Rice_3_positions",
      "componentType": 5126,
      "count": 432,
      "min": [
        -1.2105400562286377,
        0.007693000137805939,
        -2.2520389556884766
      ],
      "max": [
        0.913661003112793,
        1.6375960111618042,
        2.691112995147705
      ],
      "type": "VEC3",
      "bufferView": 0,
      "byteOffset": 3840
    },
    {
      "name": "Egg_GP Rice_3_normals",
      "componentType": 5126,
      "count": 432,
      "min": [
        -0.9445559978485107,
        -0.9998630285263062,
        -0.8327360153198242
      ],
      "max": [
        0.9924309849739075,
        0.9994019865989685,
        0.8327360153198242
      ],
      "type": "VEC3",
      "bufferView": 0,
      "byteOffset": 34080
    },
    {
      "name": "Egg_GP Rice_3_texcoords",
      "componentType": 5126,
      "count": 432,
      "min": [
        0.0018889999482780695,
        0.0019920000340789557
      ],
      "max": [
        0.9463139772415161,
        0.9980080127716064
      ],
      "type": "VEC2",
      "bufferView": 1,
      "byteOffset": 2560
    },
    {
      "name": "Egg_GP Rice_3_0_indices",
      "componentType": 5123,
      "count": 432,
      "min": [
        0
      ],
      "max": [
        431
      ],
      "type": "SCALAR",
      "bufferView": 2,
      "byteOffset": 960
    },
    {
      "name": "Egg_GP Egg_3_positions",
      "componentType": 5126,
      "count": 88,
      "min": [
        -0.951645016670227,
        1.459352970123291,
        -2.705183982849121
      ],
      "max": [
        0.8425490260124207,
        1.903427004814148,
        2.705183982849121
      ],
      "type": "VEC3",
      "bufferView": 0,
      "byteOffset": 9024
    },
    {
      "name": "Egg_GP Egg_3_normals",
      "componentType": 5126,
      "count": 88,
      "min": [
        -0.9999409914016724,
        -0.9998779892921448,
        -1
      ],
      "max": [
        0.9999409914016724,
        0.9998779892921448,
        1
      ],
      "type": "VEC3",
      "bufferView": 0,
      "byteOffset": 39264
    },
    {
      "name": "Egg_GP Egg_3_texcoords",
      "componentType": 5126,
      "count": 88,
      "min": [
        0.125,
        0
      ],
      "max": [
        0.875,
        1
      ],
      "type": "VEC2",
      "bufferView": 1,
      "byteOffset": 6016
    },
    {
      "name": "Egg_GP Egg_3_0_indices",
      "componentType": 5123,
      "count": 132,
      "min": [
        0
      ],
      "max": [
        87
      ],
      "type": "SCALAR",
      "bufferView": 2,
      "byteOffset": 1824
    },
    {
      "name": "SeaWeed Egg_GP_4_positions",
      "componentType": 5126,
      "count": 320,
      "min": [
        -1.223410964012146,
        -0.0036810000892728567,
        -0.45249900221824646
      ],
      "max": [
        0.9221389889717102,
        1.9230250120162964,
        0.45249900221824646
      ],
      "type": "VEC3",
      "bufferView": 0,
      "byteOffset": 10080
    },
    {
      "name": "SeaWeed Egg_GP_4_normals",
      "componentType": 5126,
      "count": 320,
      "min": [
        -0.9996920228004456,
        -1,
        -1
      ],
      "max": [
        0.9996880292892456,
        1,
        1
      ],
      "type": "VEC3",
      "bufferView": 0,
      "byteOffset": 40320
    },
    {
      "name": "SeaWeed Egg_GP_4_texcoords",
      "componentType": 5126,
      "count": 320,
      "min": [
        0.125,
        0
      ],
      "max": [
        0.875,
        1
      ],
      "type": "VEC2",
      "bufferView": 1,
      "byteOffset": 6720
    },
    {
      "name": "SeaWeed Egg_GP_4_0_indices",
      "componentType": 5123,
      "count": 480,
      "min": [
        0
      ],
      "max": [
        319
      ],
      "type": "SCALAR",
      "bufferView": 2,
      "byteOffset": 2088
    },
    {
      "name": "SeaWeed Egg_GP_5_positions",
      "componentType": 5126,
      "count": 320,
      "min": [
        -1.223410964012146,
        -0.0036810000892728567,
        -0.45249900221824646
      ],
      "max": [
        0.9221389889717102,
        1.9230250120162964,
        0.45249900221824646
      ],
      "type": "VEC3",
      "bufferView": 0,
      "byteOffset": 13920
    },
    {
      "name": "SeaWeed Egg_GP_5_normals",
      "componentType": 5126,
      "count": 320,
      "min": [
        -0.9996920228004456,
        -1,
        -1
      ],
      "max": [
        0.9996880292892456,
        1,
        1
      ],
      "type": "VEC3",
      "bufferView": 0,
      "byteOffset": 44160
    },
    {
      "name": "SeaWeed Egg_GP_5_texcoords",
      "componentType": 5126,
      "count": 320,
      "min": [
        0.125,
        0
      ],
      "max": [
        0.875,
        1
      ],
      "type": "VEC2",
      "bufferView": 1,
      "byteOffset": 9280
    },
    {
      "name": "SeaWeed Egg_GP_5_0_indices",
      "componentType": 5123,
      "count": 480,
      "min": [
        0
      ],
      "max": [
        319
      ],
      "type": "SCALAR",
      "bufferView": 2,
      "byteOffset": 3048
    },
    {
      "name": "Egg_GP Rice_4_positions",
      "componentType": 5126,
      "count": 432,
      "min": [
        -1.2105400562286377,
        0.007693000137805939,
        -2.2520389556884766
      ],
      "max": [
        0.913661003112793,
        1.6375960111618042,
        2.691112995147705
      ],
      "type": "VEC3",
      "bufferView": 0,
      "byteOffset": 17760
    },
    {
      "name": "Egg_GP Rice_4_normals",
      "componentType": 5126,
      "count": 432,
      "min": [
        -0.9445559978485107,
        -0.9998630285263062,
        -0.8327360153198242
      ],
      "max": [
        0.9924309849739075,
        0.9994019865989685,
        0.8327360153198242
      ],
      "type": "VEC3",
      "bufferView": 0,
      "byteOffset": 48000
    },
    {
      "name": "Egg_GP Rice_4_texcoords",
      "componentType": 5126,
      "count": 432,
      "min": [
        0.0018889999482780695,
        0.0019920000340789557
      ],
      "max": [
        0.9463139772415161,
        0.9980080127716064
      ],
      "type": "VEC2",
      "bufferView": 1,
      "byteOffset": 11840
    },
    {
      "name": "Egg_GP Rice_4_0_indices",
      "componentType": 5123,
      "count": 432,
      "min": [
        0
      ],
      "max": [
        431
      ],
      "type": "SCALAR",
      "bufferView": 2,
      "byteOffset": 4008
    },
    {
      "name": "Egg_GP Rice_5_positions",
      "componentType": 5126,
      "count": 432,
      "min": [
        -1.2105400562286377,
        0.007693000137805939,
        -2.2520389556884766
      ],
      "max": [
        0.913661003112793,
        1.6375960111618042,
        2.691112995147705
      ],
      "type": "VEC3",
      "bufferView": 0,
      "byteOffset": 22944
    },
    {
      "name": "Egg_GP Rice_5_normals",
      "componentType": 5126,
      "count": 432,
      "min": [
        -0.9445559978485107,
        -0.9998630285263062,
        -0.8327360153198242
      ],
      "max": [
        0.9924309849739075,
        0.9994019865989685,
        0.8327360153198242
      ],
      "type": "VEC3",
      "bufferView": 0,
      "byteOffset": 53184
    },
    {
      "name": "Egg_GP Rice_5_texcoords",
      "componentType": 5126,
      "count": 432,
      "min": [
        0.0018889999482780695,
        0.0019920000340789557
      ],
      "max": [
        0.9463139772415161,
        0.9980080127716064
      ],
      "type": "VEC2",
      "bufferView": 1,
      "byteOffset": 15296
    },
    {
      "name": "Egg_GP Rice_5_0_indices",
      "componentType": 5123,
      "count": 432,
      "min": [
        0
      ],
      "max": [
        431
      ],
      "type": "SCALAR",
      "bufferView": 2,
      "byteOffset": 4872
    },
    {
      "name": "Egg_GP Egg_4_positions",
      "componentType": 5126,
      "count": 88,
      "min": [
        -0.951645016670227,
        1.459352970123291,
        -2.705183982849121
      ],
      "max": [
        0.8425490260124207,
        1.903427004814148,
        2.705183982849121
      ],
      "type": "VEC3",
      "bufferView": 0,
      "byteOffset": 28128
    },
    {
      "name": "Egg_GP Egg_4_normals",
      "componentType": 5126,
      "count": 88,
      "min": [
        -0.9999409914016724,
        -0.9998779892921448,
        -1
      ],
      "max": [
        0.9999409914016724,
        0.9998779892921448,
        1
      ],
      "type": "VEC3",
      "bufferView": 0,
      "byteOffset": 58368
    },
    {
      "name": "Egg_GP Egg_4_texcoords",
      "componentType": 5126,
      "count": 88,
      "min": [
        0.125,
        0
      ],
      "max": [
        0.875,
        1
      ],
      "type": "VEC2",
      "bufferView": 1,
      "byteOffset": 18752
    },
    {
      "name": "Egg_GP Egg_4_0_indices",
      "componentType": 5123,
      "count": 132,
      "min": [
        0
      ],
      "max": [
        87
      ],
      "type": "SCALAR",
      "bufferView": 2,
      "byteOffset": 5736
    },
    {
      "name": "Egg_GP Egg_5_positions",
      "componentType": 5126,
      "count": 88,
      "min": [
        -0.951645016670227,
        1.459352970123291,
        -2.705183982849121
      ],
      "max": [
        0.8425490260124207,
        1.903427004814148,
        2.705183982849121
      ],
      "type": "VEC3",
      "bufferView": 0,
      "byteOffset": 29184
    },
    {
      "name": "Egg_GP Egg_5_normals",
      "componentType": 5126,
      "count": 88,
      "min": [
        -0.9999409914016724,
        -0.9998779892921448,
        -1
      ],
      "max": [
        0.9999409914016724,
        0.9998779892921448,
        1
      ],
      "type": "VEC3",
      "bufferView": 0,
      "byteOffset": 59424
    },
    {
      "name": "Egg_GP Egg_5_texcoords",
      "componentType": 5126,
      "count": 88,
      "min": [
        0.125,
        0
      ],
      "max": [
        0.875,
        1
      ],
      "type": "VEC2",
      "bufferView": 1,
      "byteOffset": 19456
    },
    {
      "name": "Egg_GP Egg_5_0_indices",
      "componentType": 5123,
      "count": 132,
      "min": [
        0
      ],
      "max": [
        87
      ],
      "type": "SCALAR",
      "bufferView": 2,
      "byteOffset": 6000
    }
  ],
  "asset": {
    "generator": "obj2gltf",
    "version": "2.0"
  },
  "buffers": [
    {
      "name": "egg",
      "byteLength": 86904,
      "uri": "data:application/octet-stream;base64,"
    }
  ],
  "bufferViews": [
    {
      "name": "bufferView_0",
      "buffer": 0,
      "byteLength": 60480,
      "byteOffset": 0,
      "byteStride": 12,
      "target": 34962
    },
    {
      "name": "bufferView_1",
      "buffer": 0,
      "byteLength": 20160,
      "byteOffset": 60480,
      "byteStride": 8,
      "target": 34962
    },
    {
      "name": "bufferView_2",
      "buffer": 0,
      "byteLength": 6264,
      "byteOffset": 80640,
      "target": 34963
    }
  ],
  "materials": [
    {
      "name": "SeaWeedSG",
      "pbrMetallicRoughness": {
        "baseColorFactor": [
          0.03,
          0.03,
          0.01,
          1
        ],
        "metallicFactor": 0,
        "roughnessFactor": 0.982
      },
      "emissiveFactor": [
        0,
        0,
        0
      ],
      "alphaMode": "OPAQUE",
      "doubleSided": false
    },
    {
      "name": "RiceSG",
      "pbrMetallicRoughness": {
        "baseColorFactor": [
          0.72,
          0.72,
          0.72,
          1
        ],
        "metallicFactor": 0,
        "roughnessFactor": 0.982
      },
      "emissiveFactor": [
        0,
        0,
        0
      ],
      "alphaMode": "OPAQUE",
      "doubleSided": false
    },
    {
      "name": "EggSG",
      "pbrMetallicRoughness": {
        "baseColorFactor": [
          0.76,
          0.73,
          0.25,
          1
        ],
        "metallicFactor": 0,
        "roughnessFactor": 0.982
      },
      "emissiveFactor": [
        0,
        0,
        0
      ],
      "alphaMode": "OPAQUE",
      "doubleSided": false
    }
  ],
  "meshes": [
    {
      "name": "SeaWeed Egg_GP_3",
      "primitives": [
        {
          "attributes": {
            "POSITION": 0,
            "NORMAL": 1,
            "TEXCOORD_0": 2
          },
          "indices": 3,
          "material": 0,
          "mode": 4
        }
      ]
    },
    {
      "name": "Egg_GP Rice_3",
      "primitives": [
        {
          "attributes": {
            "POSITION": 4,
            "NORMAL": 5,
            "TEXCOORD_0": 6
          },
          "indices": 7,
          "material": 1,
          "mode": 4
        }
      ]
    },
    {
      "name": "Egg_GP Egg_3",
      "primitives": [
        {
          "attributes": {
            "POSITION": 8,
            "NORMAL": 9,
            "TEXCOORD_0": 10
          },
          "indices": 11,
          "material": 2,
          "mode": 4
        }
      ]
    },
    {
      "name": "SeaWeed Egg_GP_4",
      "primitives": [
        {
          "attributes": {
            "POSITION": 12,
            "NORMAL": 13,
            "TEXCOORD_0": 14
          },
          "indices": 15,
          "material": 2,
          "mode": 4
        }
      ]
    },
    {
      "name": "SeaWeed Egg_GP_5",
      "primitives": [
        {
          "attributes": {
            "POSITION": 16,
            "NORMAL": 17,
            "TEXCOORD_0": 18
          },
          "indices": 19,
          "material": 2,
          "mode": 4
        }
      ]
    },
    {
      "name": "Egg_GP Rice_4",
      "primitives": [
        {
          "attributes": {
            "POSITION": 20,
            "NORMAL": 21,
            "TEXCOORD_0": 22
          },
          "indices": 23,
          "material": 2,
          "mode": 4
        }
      ]
    },
    {
      "name": "Egg_GP Rice_5",
      "primitives": [
        {
          "attributes": {
            "POSITION": 24,
            "NORMAL": 25,
            "TEXCOORD_0": 26
          },
          "indices": 27,
          "material": 2,
          "mode": 4
        }
      ]
    },
    {
      "name": "Egg_GP Egg_4",
      "primitives": [
        {
          "attributes": {
            "POSITION": 28,
            "NORMAL": 29,
            "TEXCOORD_0": 30
          },
          "indices": 31,
          "material": 2,
          "mode": 4
        }
      ]
    },
    {
      "name": "Egg_GP Egg_5",
      "primitives": [
        {
          "attributes": {
            "POSITION": 32,
            "NORMAL": 33,
            "TEXCOORD_0": 34
          },
          "indices": 35,
          "material": 2,
          "mode": 4
        }
      ]
    }
  ],
  "nodes": [
    {
      "name": "SeaWeed Egg_GP",
      "mesh": 0
    },
    {
      "name": "Egg_GP Rice",
      "mesh": 1
    },
    {
      "name": "Egg_GP Egg",
      "mesh": 2
    },
    {
      "name": "SeaWeed Egg_GP_1",
      "mesh": 3
    },
    {
      "name": "SeaWeed Egg_GP_2",
      "mesh": 4
    },
    {
      "name": "Egg_GP Rice_1",
      "mesh": 5
    },
    {
      "name": "Egg_GP Rice_2",
      "mesh": 6
    },
    {
      "name": "Egg_GP Egg_1",
      "mesh": 7
    },
    {
      "name": "Egg_GP Egg_2",
      "mesh": 8
    }
  ],
  "scene": 0,
  "scenes": [
    {
      "nodes": [
        0,
        1,
        2,
        3,
        4,
        5,
        6,
        7,
        8
      ]
    }
  ]
}
