{
  "accessors": [
    {
      "name": "Maguro Maguro_GP_3_positions",
      "componentType": 5126,
      "count": 248,
      "min": [
        -0.9998869895935059,
        0.7256669998168945,
        -2.529858112335205
      ],
      "max": [
        0.870015025138855,
        1.8168859481811523,
        2.8812971115112305
      ],
      "type": "VEC3",
      "bufferView": 0,
      "byteOffset": 0
    },
    {
      "name": "Maguro Maguro_GP_3_normals",
      "componentType": 5126,
      "count": 248,
      "min": [
        -1,
        -1,
        -0.7748500108718872
      ],
      "max": [
        1,
        0.9999250173568726,
        0.7608969807624817
      ],
      "type": "VEC3",
      "bufferView": 0,
      "byteOffset": 24480
    },
    {
      "name": "Maguro Maguro_GP_3_texcoords",
      "componentType": 5126,
      "count": 248,
      "min": [
        0.0019920000340789557,
        0.0663599967956543
      ],
      "max": [
        0.9980080127716064,
        0.9981359839439392
      ],
      "type": "VEC2",
      "bufferView": 1,
      "byteOffset": 0
    },
    {
      "name": "Maguro Maguro_GP_3_0_indices",
      "componentType": 5123,
      "count": 372,
      "min": [
        0
      ],
      "max": [
        247
      ],
      "type": "SCALAR",
      "bufferView": 2,
      "byteOffset": 0
    },
    {
      "name": "Maguro_GP Rice_3_positions",
      "componentType": 5126,
      "count": 432,
      "min": [
        -1.2105400562286377,
        0.007693000137805939,
        -2.2520389556884766
      ],
      "max": [
        0.913661003112793,
        1.6375960111618042,
        2.691112995147705
      ],
      "type": "VEC3",
      "bufferView": 0,
      "byteOffset": 2976
    },
    {
      "name": "Maguro_GP Rice_3_normals",
      "componentType": 5126,
      "count": 432,
      "min": [
        -0.9445559978485107,
        -0.9998630285263062,
        -0.8327360153198242
      ],
      "max": [
        0.9924309849739075,
        0.9994019865989685,
        0.8327360153198242
      ],
      "type": "VEC3",
      "bufferView": 0,
      "byteOffset": 27456
    },
    {
      "name": "Maguro_GP Rice_3_texcoords",
      "componentType": 5126,
      "count": 432,
      "min": [
        0.0018889999482780695,
        0.0019920000340789557
      ],
      "max": [
        0.9463139772415161,
        0.9980080127716064
      ],
      "type": "VEC2",
      "bufferView": 1,
      "byteOffset": 1984
    },
    {
      "name": "Maguro_GP Rice_3_0_indices",
      "componentType": 5123,
      "count": 432,
      "min": [
        0
      ],
      "max": [
        431
      ],
      "type": "SCALAR",
      "bufferView": 2,
      "byteOffset": 744
    },
    {
      "name": "Maguro Maguro_GP_4_positions",
      "componentType": 5126,
      "count": 248,
      "min": [
        -0.9998869895935059,
        0.7256669998168945,
        -2.529858112335205
      ],
      "max": [
        0.870015025138855,
        1.8168859481811523,
        2.8812971115112305
      ],
      "type": "VEC3",
      "bufferView": 0,
      "byteOffset": 8160
    },
    {
      "name": "Maguro Maguro_GP_4_normals",
      "componentType": 5126,
      "count": 248,
      "min": [
        -1,
        -1,
        -0.7748500108718872
      ],
      "max": [
        1,
        0.9999250173568726,
        0.7608969807624817
      ],
      "type": "VEC3",
      "bufferView": 0,
      "byteOffset": 32640
    },
    {
      "name": "Maguro Maguro_GP_4_texcoords",
      "componentType": 5126,
      "count": 248,
      "min": [
        0.0019920000340789557,
        0.0663599967956543
      ],
      "max": [
        0.9980080127716064,
        0.9981359839439392
      ],
      "type": "VEC2",
      "bufferView": 1,
      "byteOffset": 5440
    },
    {
      "name": "Maguro Maguro_GP_4_0_indices",
      "componentType": 5123,
      "count": 372,
      "min": [
        0
      ],
      "max": [
        247
      ],
      "type": "SCALAR",
      "bufferView": 2,
      "byteOffset": 1608
    },
    {
      "name": "Maguro Maguro_GP_5_positions",
      "componentType": 5126,
      "count": 248,
      "min": [
        -0.9998869895935059,
        0.7256669998168945,
        -2.529858112335205
      ],
      "max": [
        0.870015025138855,
        1.8168859481811523,
        2.8812971115112305
      ],
      "type": "VEC3",
      "bufferView": 0,
      "byteOffset": 11136
    },
    {
      "name": "Maguro Maguro_GP_5_normals",
      "componentType": 5126,
      "count": 248,
      "min": [
        -1,
        -1,
        -0.7748500108718872
      ],
      "max": [
        1,
        0.9999250173568726,
        0.7608969807624817
      ],
      "type": "VEC3",
      "bufferView": 0,
      "byteOffset": 35616
    },
    {
      "name": "Maguro Maguro_GP_5_texcoords",
      "componentType": 5126,
      "count": 248,
      "min": [
        0.0019920000340789557,
        0.0663599967956543
      ],
      "max": [
        0.9980080127716064,
        0.9981359839439392
      ],
      "type": "VEC2",
      "bufferView": 1,
      "byteOffset": 7424
    },
    {
      "name": "Maguro Maguro_GP_5_0_indices",
      "componentType": 5123,
      "count": 372,
      "min": [
        0
      ],
      "max": [
        247
      ],
      "type": "SCALAR",
      "bufferView": 2,
      "byteOffset": 2352
    },
    {
      "name": "Maguro_GP Rice_4_positions",
      "componentType": 5126,
      "count": 432,
      "min": [
        -1.2105400562286377,
        0.007693000137805939,
        -2.2520389556884766
      ],
      "max": [
        0.913661003112793,
        1.6375960111618042,
        2.691112995147705
      ],
      "type": "VEC3",
      "bufferView": 0,
      "byteOffset": 14112
    },
    {
      "name": "Maguro_GP Rice_4_normals",
      "componentType": 5126,
      "count": 432,
      "min": [
        -0.9445559978485107,
        -0.9998630285263062,
        -0.8327360153198242
      ],
      "max": [
        0.9924309849739075,
        0.9994019865989685,
        0.8327360153198242
      ],
      "type": "VEC3",
      "bufferView": 0,
      "byteOffset": 38592
    },
    {
      "name": "Maguro_GP Rice_4_texcoords",
      "componentType": 5126,
      "count": 432,
      "min": [
        0.0018889999482780695,
        0.0019920000340789557
      ],
      "max": [
        0.9463139772415161,
        0.9980080127716064
      ],
      "type": "VEC2",
      "bufferView": 1,
      "byteOffset": 9408
    },
    {
      "name": "Maguro_GP Rice_4_0_indices",
      "componentType": 5123,
      "count": 432,
      "min": [
        0
      ],
      "max": [
        431
      ],
      "type": "SCALAR",
      "bufferView": 2,
      "byteOffset": 3096
    },
    {
      "name": "Maguro_GP Rice_5_positions",
      "componentType": 5126,
      "count": 432,
      "min": [
        -1.2105400562286377,
        0.007693000137805939,
        -2.2520389556884766
      ],
      "max": [
        0.913661003112793,
        1.6375960111618042,
        2.691112995147705
      ],
      "type": "VEC3",
      "bufferView": 0,
      "byteOffset": 19296
    },
    {
      "name": "Maguro_GP Rice_5_normals",
      "componentType": 5126,
      "count": 432,
      "min": [
        -0.9445559978485107,
        -0.9998630285263062,
        -0.8327360153198242
      ],
      "max": [
        0.9924309849739075,
        0.9994019865989685,
        0.8327360153198242
      ],
      "type": "VEC3",
      "bufferView": 0,
      "byteOffset": 43776
    },
    {
      "name": "Maguro_GP Rice_5_texcoords",
      "componentType": 5126,
      "count": 432,
      "min": [
        0.0018889999482780695,
        0.0019920000340789557
      ],
      "max": [
        0.9463139772415161,
        0.9980080127716064
      ],
      "type": "VEC2",
      "bufferView": 1,
      "byteOffset": 12864
    },
    {
      "name": "Maguro_GP Rice_5_0_indices",
      "componentType": 5123,
      "count": 432,
      "min": [
        0
      ],
      "max": [
        431
      ],
      "type": "SCALAR",
      "bufferView": 2,
      "byteOffset": 3960
    }
  ],
  "asset": {
    "generator": "obj2gltf",
    "version": "2.0"
  },
  "buffers": [
    {
      "name": "maguro",
      "byteLength": 70104,
      "uri": "data:application/octet-stream;base64,"
    }
  ],
  "bufferViews": [
    {
      "name": "bufferView_0",
      "buffer": 0,
      "byteLength": 48960,
      "byteOffset": 0,
      "byteStride": 12,
      "target": 34962
    },
    {
      "name": "bufferView_1",
      "buffer": 0,
      "byteLength": 16320,
      "byteOffset": 48960,
      "byteStride": 8,
      "target": 34962
    },
    {
      "name": "bufferView_2",
      "buffer": 0,
      "byteLength": 4824,
      "byteOffset": 65280,
      "target": 34963
    }
  ],
  "materials": [
    {
      "name": "MaguroSG",
      "pbrMetallicRoughness": {
        "baseColorFactor": [
          0.21,
          0,
          0,
          1
        ],
        "metallicFactor": 0,
        "roughnessFactor": 0.982
      },
      "emissiveFactor": [
        0,
        0,
        0
      ],
      "alphaMode": "OPAQUE",
      "doubleSided": false
    },
    {
      "name": "RiceSG",
      "pbrMetallicRoughness": {
        "baseColorFactor": [
          0.72,
          0.72,
          0.72,
          1
        ],
        "metallicFactor": 0,
        "roughnessFactor": 0.982
      },
      "emissiveFactor": [
        0,
        0,
        0
      ],
      "alphaMode": "OPAQUE",
      "doubleSided": false
    }
  ],
  "meshes": [
    {
      "name": "Maguro Maguro_GP_3",
      "primitives": [
        {
          "attributes": {
            "POSITION": 0,
            "NORMAL": 1,
            "TEXCOORD_0": 2
          },
          "indices": 3,
          "material": 0,
          "mode": 4
        }
      ]
    },
    {
      "name": "Maguro_GP Rice_3",
      "primitives": [
        {
          "attributes": {
            "POSITION": 4,
            "NORMAL": 5,
            "TEXCOORD_0": 6
          },
          "indices": 7,
          "material": 1,
          "mode": 4
        }
      ]
    },
    {
      "name": "Maguro Maguro_GP_4",
      "primitives": [
        {
          "attributes": {
            "POSITION": 8,
            "NORMAL": 9,
            "TEXCOORD_0": 10
          },
          "indices": 11,
          "material": 1,
          "mode": 4
        }
      ]
    },
    {
      "name": "Maguro Maguro_GP_5",
      "primitives": [
        {
          "attributes": {
            "POSITION": 12,
            "NORMAL": 13,
            "TEXCOORD_0": 14
          },
          "indices": 15,
          "material": 1,
          "mode": 4
        }
      ]
    },
    {
      "name": "Maguro_GP Rice_4",
      "primitives": [
        {
          "attributes": {
            "POSITION": 16,
            "NORMAL": 17,
            "TEXCOORD_0": 18
          },
          "indices": 19,
          "material": 1,
          "mode": 4
        }
      ]
    },
    {
      "name": "Maguro_GP Rice_5",
      "primitives": [
        {
          "attributes": {
            "POSITION": 20,
            "NORMAL": 21,
            "TEXCOORD_0": 22
          },
          "indices": 23,
          "material": 1,
          "mode": 4
        }
      ]
    }
  ],
  "nodes": [
    {
      "name": "Maguro Maguro_GP",
      "mesh": 0
    },
    {
      "name": "Maguro_GP Rice",
      "mesh": 1
    },
    {
      "name": "Maguro Maguro_GP_1",
      "mesh": 2
    },
    {
      "name": "Maguro Maguro_GP_2",
      "mesh": 3
    },
    {
      "name": "Maguro_GP Rice_1",
      "mesh": 4
    },
    {
      "name": "Maguro_GP Rice_2",
      "mesh": 5
    }
  ],
  "scene": 0,
  "scenes": [
    {
      "nodes": [
        0,
        1,
        2,
        3,
        4,
        5
      ]
    }
  ]
}
